<?xml version="1.0" standalone="no"?>
<!DOCTYPE svg PUBLIC "-//W3C//DTD SVG 20010904//EN"
 "http://www.w3.org/TR/2001/REC-SVG-20010904/DTD/svg10.dtd">
<svg version="1.0" xmlns="http://www.w3.org/2000/svg"
 width="128.000000pt" height="128.000000pt" viewBox="0 0 128.000000 128.000000"
 preserveAspectRatio="xMidYMid meet">
<metadata>
Created by potrace 1.11, written by Peter Selinger 2001-2013
</metadata>
<g transform="translate(0.000000,128.000000) scale(0.100000,-0.100000)"
fill="#000000" stroke="none">
<path d="M232 1047 l-212 -212 144 -143 c113 -113 142 -147 139 -165 -3 -15
10 -36 42 -71 42 -45 50 -64 46 -108 -4 -31 18 -19 34 19 l16 37 189 -189
c104 -105 194 -191 199 -193 9 -3 429 410 434 427 1 5 -64 77 -145 159 -82 82
-148 154 -148 160 0 10 -29 26 -42 24 -18 -4 -6 9 14 17 22 8 22 9 -9 25 -18
9 -37 25 -43 37 -8 13 -19 19 -33 17 -17 -3 -63 37 -210 184 -104 103 -192
188 -195 188 -4 0 -103 -96 -220 -213z"/>
</g>
</svg>
