<?xml version="1.0" encoding="utf-8"?>
<!-- Generator: Adobe Illustrator 21.1.0, SVG Export Plug-In . SVG Version: 6.00 Build 0)  -->
<svg version="1.1" id="Layer_1" xmlns="http://www.w3.org/2000/svg" xmlns:xlink="http://www.w3.org/1999/xlink" x="0px" y="0px"
	 viewBox="0 0 368.9 603.1" style="enable-background:new 0 0 368.9 603.1;" xml:space="preserve">
<style type="text/css">
	.st0{fill:#444444;}
</style>
<title>Artboard 3</title>
<path class="st0" d="M300.8,595.1H68.1c-33.1,0-60-26.8-60.1-59.9c0-10.6,2.8-21,8.1-30.1l117.6-203.6L16.1,97.8
	C-0.5,69.1,9.3,32.4,38,15.8c9.2-5.3,19.6-8.1,30.1-8.1h232.7c33.1,0,60,26.8,60.1,59.9c0,10.6-2.8,21-8.1,30.1L235.2,301.4l42.1,73
	l0,0L352.8,505c16.6,28.7,6.8,65.4-21.9,82C321.8,592.3,311.4,595.1,300.8,595.1z M68.1,21.7c-25.4,0-46,20.5-46.1,45.9
	c0,8.1,2.1,16.1,6.2,23.1l119.6,207.1c1.3,2.2,1.3,4.8,0,7L28.2,512c-12.7,22-5.3,50.1,16.7,62.9c7,4.1,15,6.2,23.2,6.2h232.7
	c25.4,0,46-20.5,46.1-45.9c0-8.1-2.1-16.1-6.2-23.1L221.1,304.9c-1.3-2.2-1.3-4.8,0-7L340.7,90.8c12.7-22,5.3-50.1-16.7-62.9
	c-7-4.1-15-6.2-23.1-6.2H68.1z"/>
<path class="st0" d="M184.9,189.9H228c8.4,0,15.2,6.8,15.2,15.2c0,2.7-0.7,5.3-2,7.6L219.6,250L198,287.3
	c-4.2,7.2-13.5,9.7-20.7,5.5c-2.3-1.3-4.2-3.2-5.5-5.5L150.2,250l-21.5-37.3c-4.2-7.2-1.7-16.5,5.5-20.7c2.3-1.3,4.9-2,7.6-2h43.1
	V189.9z"/>
<path class="st0" d="M184.9,559.5H68.6c-12.7,0-23-10.3-23-23c0-4.1,1.1-8.1,3.1-11.6l58.2-100.8l0,0c34.7-60.1,121.5-60.1,156.2,0
	l0,0L321.2,525c6.4,11,2.6,25.1-8.4,31.4c-3.5,2-7.5,3.1-11.5,3.1H184.9z"/>
</svg>
