<svg id="Layer_1" data-name="Layer 1" xmlns="http://www.w3.org/2000/svg" viewBox="0 0 368.92 603.07"><defs><style>.cls-1{fill:#fff;}</style></defs><title>Artboard 3</title><path class="cls-1" d="M300.79,595.07H68.06a60,60,0,0,1-52-90.07L133.62,301.38,16.06,97.75a60,60,0,0,1,52-90.07H300.79a60,60,0,0,1,52,90.07L235.22,301.38l42.13,73h0L352.79,505a60,60,0,0,1-52,90.07ZM68.06,21.68A46,46,0,0,0,28.19,90.75L147.77,297.88a7,7,0,0,1,0,7L28.19,512a46,46,0,0,0,39.88,69.07H300.79A46,46,0,0,0,340.66,512L221.08,304.88a7,7,0,0,1,0-7L340.66,90.75a46,46,0,0,0-39.87-69.07Z"/><path class="cls-1" d="M184.92,131.47H252a23.6,23.6,0,0,1,20.44,35.4L238.92,225l-33.56,58.12a23.6,23.6,0,0,1-40.87,0L130.93,225,97.38,166.87a23.6,23.6,0,0,1,20.44-35.4Z"/><path class="cls-1" d="M184.92,559.55H68.56A23,23,0,0,1,48.64,525l58.18-100.78h0c34.71-60.12,121.49-60.12,156.2,0h0L321.21,525a23,23,0,0,1-19.92,34.5Z"/></svg>