<?xml version="1.0" encoding="UTF-8"?>
<svg viewBox="0 0 24 24" version="1.1" xmlns="http://www.w3.org/2000/svg" xmlns:xlink="http://www.w3.org/1999/xlink">
    <!-- Generator: Sketch 48.2 (47327) - http://www.bohemiancoding.com/sketch -->
    <title>icon-add-solid</title>
    <desc>Created with Sketch.</desc>
    <defs></defs>
    <g id="Page-1" stroke="none" stroke-width="1" fill="none" fill-rule="evenodd">
        <g id="icon-add-solid" fill="#FFFFFF" fill-rule="nonzero">
            <path d="M10.8,10.8 L7.2,10.8 C6.5372583,10.8 6,11.3372583 6,12 C6,12.6627417 6.5372583,13.2 7.2,13.2 L10.8,13.2 L10.8,16.8 C10.8,17.4627417 11.3372583,18 12,18 C12.6627417,18 13.2,17.4627417 13.2,16.8 L13.2,13.2 L16.8,13.2 C17.4627417,13.2 18,12.6627417 18,12 C18,11.3372583 17.4627417,10.8 16.8,10.8 L13.2,10.8 L13.2,7.2 C13.2,6.5372583 12.6627417,6 12,6 C11.3372583,6 10.8,6.5372583 10.8,7.2 L10.8,10.8 Z M12,23 C5.92486775,23 1,18.0751322 1,12 C1,5.92486775 5.92486775,1 12,1 C18.0751322,1 23,5.92486775 23,12 C23,18.0751322 18.0751322,23 12,23 Z" id="Combined-Shape"></path>
        </g>
    </g>
</svg>
