<?xml version="1.0" encoding="UTF-8"?>
<svg viewBox="0 0 24 24" aria-hidden="true" version="1.1" xmlns="http://www.w3.org/2000/svg" xmlns:xlink="http://www.w3.org/1999/xlink">
    <!-- Generator: Sketch 49 (51002) - http://www.bohemiancoding.com/sketch -->
    <title>icon-arrow-right-flat</title>
    <desc>Created with Sketch.</desc>
    <defs></defs>
    <g id="icon-arrow-right-flat" stroke="none" stroke-width="1" fill="none" fill-rule="evenodd">
        <path d="M22.32874,11.6216333 C22.3573468,11.6468062 22.3828008,11.6751057 22.4047873,11.7057713 C22.4716408,11.7960575 22.5017237,11.8989246 22.5009893,12 C22.5017237,12.1010754 22.4716408,12.2039425 22.4047873,12.2942287 C22.3828008,12.3248943 22.3573468,12.3531938 22.32874,12.3783667 L17.3535534,17.3535534 C17.1582912,17.5488155 16.8417088,17.5488155 16.6464466,17.3535534 C16.4511845,17.1582912 16.4511845,16.8417088 16.6464466,16.6464466 L20.7928932,12.5 L2,12.5 C1.72385763,12.5 1.5,12.2761424 1.5,12 C1.5,11.7238576 1.72385763,11.5 2,11.5 L20.7928932,11.5 L16.6464466,7.35355339 C16.4511845,7.15829124 16.4511845,6.84170876 16.6464466,6.64644661 C16.8417088,6.45118446 17.1582912,6.45118446 17.3535534,6.64644661 L22.32874,11.6216333 Z" id="Combined-Shape" fill="#FFFFFF" fill-rule="nonzero"></path>
    </g>
</svg>
