<?xml version="1.0" encoding="UTF-8"?>
<svg viewBox="0 0 24 24" aria-hidden="true" version="1.1" xmlns="http://www.w3.org/2000/svg" xmlns:xlink="http://www.w3.org/1999/xlink">
    <!-- Generator: Sketch 49 (51002) - http://www.bohemiancoding.com/sketch -->
    <title>icon-arrow-right</title>
    <desc>Created with Sketch.</desc>
    <defs></defs>
    <g id="icon-arrow-right" stroke="none" stroke-width="1" fill="none" fill-rule="evenodd">
        <path d="M22.32874,11.6216333 C22.3573468,11.6468062 22.3828008,11.6751057 22.4047873,11.7057713 C22.4716408,11.7960575 22.5017237,11.8989246 22.5009893,12 C22.5017237,12.1010754 22.4716408,12.2039425 22.4047873,12.2942287 C22.3828008,12.3248943 22.3573468,12.3531938 22.32874,12.3783667 L14.3535534,20.3535534 C14.1582912,20.5488155 13.8417088,20.5488155 13.6464466,20.3535534 C13.4511845,20.1582912 13.4511845,19.8417088 13.6464466,19.6464466 L20.7928932,12.5 L2,12.5 C1.72385763,12.5 1.5,12.2761424 1.5,12 C1.5,11.7238576 1.72385763,11.5 2,11.5 L20.7928932,11.5 L13.6464466,4.35355339 C13.4511845,4.15829124 13.4511845,3.84170876 13.6464466,3.64644661 C13.8417088,3.45118446 14.1582912,3.45118446 14.3535534,3.64644661 L22.32874,11.6216333 Z" id="Combined-Shape" fill="#FFFFFF" fill-rule="nonzero"></path>
    </g>
</svg>
