<svg id="Layer_1" data-name="Layer 1" xmlns="http://www.w3.org/2000/svg" viewBox="0 0 24 24" aria-hidden="true"><defs><style>.cls-1{fill:#fff;}</style></defs><title>Artboard 1</title><path class="cls-1" d="M13.43,16.12a5.22,5.22,0,0,1-1.64-.27,2.78,2.78,0,0,1-1.22.29H6A2.74,2.74,0,0,1,3.28,13.4V13A2.73,2.73,0,0,1,6,10.29h4.56A2.73,2.73,0,0,1,13.3,13v.37h2.09V13A4.82,4.82,0,0,0,10.57,8.2H6A4.82,4.82,0,0,0,1.19,13v.38A4.83,4.83,0,0,0,6,18.23h4.56a4.83,4.83,0,0,0,4-2.11Z"/><path class="cls-1" d="M18,5.77H13.43a4.83,4.83,0,0,0-4,2.11h1.12a5,5,0,0,1,1.64.28,2.65,2.65,0,0,1,1.22-.3H18a2.74,2.74,0,0,1,2.73,2.74V11A2.73,2.73,0,0,1,18,13.71H13.43A2.73,2.73,0,0,1,10.7,11v-.37H8.61V11a4.82,4.82,0,0,0,4.82,4.82H18A4.82,4.82,0,0,0,22.81,11V10.6A4.83,4.83,0,0,0,18,5.77Z"/></svg>